Coordinates
version=1
nRows=65
nColumns=12
inDegrees=yes

Units are S.I. units (second, meters, Newtons, ...)
Angles are in degrees

endheader
time	SC_y	SC_z	SC_x	AC_y	AC_z	AC_x	GH_y	GH_z	GH_yy	EL_x	PS_y
       0.0              -50.26          11.61          5.058          40.33         -9.429          8.896         -60.43          -11.1         -115.0          52.55          98.73
   0.01939              -50.26          11.61          5.066          40.33         -9.429          8.893          -60.4         -11.09         -115.0          52.54          98.73
   0.03878              -50.25          11.61          5.075          40.33          -9.43           8.89         -60.37         -11.08         -114.9          52.54          98.72
   0.05816              -50.25          11.62          5.085          40.33         -9.431          8.887         -60.35         -11.07         -114.9          52.53          98.72
   0.07755              -50.24          11.62          5.095          40.33         -9.431          8.883         -60.32         -11.06         -114.9          52.52          98.71
   0.09694              -50.24          11.63          5.106          40.33         -9.432           8.88         -60.29         -11.05         -114.8          52.51           98.7
    0.1163              -50.23          11.63          5.117          40.33         -9.433          8.876         -60.25         -11.04         -114.8          52.51           98.7
    0.1357              -50.23          11.64           5.13          40.33         -9.434          8.871         -60.22         -11.03         -114.8           52.5          98.69
    0.1551              -50.22          11.65          5.143          40.33         -9.435          8.867         -60.18         -11.01         -114.7          52.49          98.68
    0.1745              -50.21          11.65          5.158          40.33         -9.436          8.862         -60.14          -11.0         -114.7          52.48          98.67
    0.1939              -50.21          11.66          5.173          40.33         -9.437          8.857         -60.09         -10.98         -114.7          52.47          98.67
    0.2133               -50.2          11.67          5.189          40.33         -9.438          8.851         -60.04         -10.97         -114.6          52.46          98.66
    0.2327              -50.19          11.68          5.207          40.33         -9.439          8.845         -59.99         -10.95         -114.6          52.44          98.65
     0.252              -50.18          11.69          5.226          40.33         -9.441          8.839         -59.94         -10.93         -114.5          52.43          98.63
    0.2714              -50.17           11.7          5.247          40.33         -9.442          8.832         -59.88         -10.91         -114.5          52.42          98.62
    0.2908              -50.16          11.71           5.27          40.33         -9.444          8.824         -59.81         -10.89         -114.4           52.4          98.61
    0.3102              -50.15          11.72          5.294          40.32         -9.446          8.816         -59.74         -10.86         -114.3          52.38           98.6
    0.3296              -50.14          11.73          5.321          40.32         -9.448          8.807         -59.66         -10.84         -114.2          52.37          98.58
     0.349              -50.12          11.75           5.35          40.32          -9.45          8.797         -59.58         -10.81         -114.2          52.35          98.56
    0.3684              -50.11          11.76          5.382          40.32         -9.452          8.786         -59.48         -10.78         -114.1          52.32          98.55
    0.3878              -50.09          11.78          5.418          40.32         -9.455          8.774         -59.38         -10.74         -114.0           52.3          98.53
    0.4071              -50.08           11.8          5.456          40.32         -9.457          8.761         -59.27          -10.7         -113.9          52.27           98.5
    0.4265              -50.06          11.82          5.499          40.32          -9.46          8.746         -59.15         -10.66         -113.8          52.24          98.48
    0.4459              -50.03          11.84          5.546          40.32         -9.464           8.73         -59.01         -10.61         -113.6          52.21          98.45
    0.4653              -50.01          11.87          5.599          40.31         -9.468          8.713         -58.86         -10.56         -113.5          52.17          98.42
    0.4847              -49.98           11.9          5.657          40.31         -9.472          8.693         -58.69          -10.5         -113.3          52.13          98.39
    0.5041              -49.95          11.93          5.723          40.31         -9.477           8.67          -58.5         -10.44         -113.1          52.09          98.35
    0.5235              -49.92          11.96          5.797          40.31         -9.482          8.645         -58.28         -10.37         -112.9          52.04          98.31
    0.5429              -49.88           12.0          5.881          40.31         -9.488          8.617         -58.04         -10.28         -112.7          51.98          98.26
    0.5622              -49.83          12.05          5.975           40.3         -9.495          8.585         -57.77         -10.19         -112.4          51.91          98.21
    0.5816              -49.78           12.1          6.084           40.3         -9.503          8.548         -57.45         -10.08         -112.1          51.84          98.14
     0.601              -49.73          12.16          6.208          40.29         -9.511          8.506         -57.09         -9.962         -111.8          51.75          98.07
    0.6204              -49.66          12.23          6.351          40.29         -9.522          8.458         -56.68          -9.82         -111.4          51.65          97.99
    0.6398              -49.58          12.31          6.518          40.28         -9.534          8.401          -56.2         -9.656         -110.9          51.54           97.9
    0.6592              -49.49          12.41          6.713          40.28         -9.548          8.335         -55.63         -9.463         -110.4           51.4          97.78
    0.6786              -49.39          12.52          6.943          40.27         -9.564          8.257         -54.97         -9.236         -109.8          51.25          97.65
     0.698              -49.26          12.65          7.216          40.26         -9.584          8.165         -54.18         -8.967         -109.0          51.06           97.5
    0.7173              -49.11          12.81          7.544          40.25         -9.608          8.054         -53.23         -8.644         -108.1          50.83          97.31
    0.7367              -48.92           13.0           7.94          40.24         -9.636           7.92         -52.08         -8.253         -107.0          50.56          97.08
    0.7561               -48.7          13.23          8.424          40.22         -9.671          7.756         -50.68         -7.776         -105.7          50.22          96.81
    0.7755              -48.42          13.52          9.021           40.2         -9.714          7.554         -48.95         -7.186         -104.0          49.81          96.46
    0.7949              -48.07          13.88          9.766          40.18         -9.768          7.301         -46.79         -6.451         -102.0           49.3          96.04
    0.8143              -47.64          14.34           10.7          40.15         -9.835          6.984         -44.07         -5.526         -99.37          48.65           95.5
    0.8337              -47.08          14.91           11.9          40.11         -9.921           6.58         -40.62         -4.349         -96.08          47.83          94.82
    0.8531              -46.38          15.65          13.42          40.06         -10.03          6.063          -36.2         -2.843         -91.86          46.77          93.95
    0.8725              -45.47           16.6          15.38          39.99         -10.17          5.399         -30.53        -0.9098         -86.44          45.42          92.82
    0.8918               -44.3          17.81          17.89          39.91         -10.35          4.552         -23.28          1.559         -79.53          43.69          91.39
    0.9112              -42.84          19.33          21.03          39.81         -10.58          3.486         -14.17          4.664         -70.83          41.52          89.59
    0.9306              -41.06          21.19          24.87          39.68         -10.85          2.187         -3.062          8.447         -60.24          38.87           87.4
      0.95               -39.0          23.34          29.31          39.54         -11.17         0.6819          9.809          12.83         -47.95           35.8          84.86
    0.9694              -36.76          25.66          34.13          39.38         -11.52        -0.9481          23.75          17.58         -34.65          32.48           82.1
    0.9888              -34.52          27.99          38.94          39.22         -11.87         -2.578          37.68          22.33         -21.36          29.16          79.35
     1.008              -32.46          30.14          43.38          39.08         -12.19         -4.083          50.55          26.71         -9.073          26.09          76.81
     1.028              -30.68           32.0          47.22          38.95         -12.46         -5.382          61.66           30.5          1.523          23.44          74.61
     1.047              -29.22          33.52          50.37          38.85         -12.69         -6.448          70.77           33.6          10.22          21.27          72.81
     1.066              -28.06          34.73          52.87          38.77         -12.87         -7.295          78.02          36.07          17.13          19.54          71.38
     1.086              -27.15          35.68          54.83           38.7         -13.01         -7.959          83.69           38.0          22.55          18.19          70.26
     1.105              -26.44          36.42          56.36          38.65         -13.12         -8.476          88.11          39.51          26.77          17.13          69.39
     1.124              -25.88          36.99          57.55          38.61         -13.21          -8.88          91.57          40.69          30.06          16.31           68.7
     1.144              -25.45          37.45          58.49          38.58         -13.28         -9.198          94.28          41.61          32.66          15.66          68.17
     1.163               -25.1          37.81          59.23          38.56         -13.33          -9.45          96.44          42.35          34.71          15.15          67.74
     1.183              -24.82           38.1          59.83          38.54         -13.37         -9.652          98.17          42.94          36.36          14.73           67.4
     1.202               -24.6          38.33          60.31          38.52         -13.41         -9.816          99.57          43.41           37.7           14.4          67.12
     1.221              -24.41          38.52          60.71          38.51         -13.44          -9.95          100.7           43.8           38.8          14.13           66.9
     1.241              -24.26          38.68          61.04           38.5         -13.46         -10.06          101.7          44.13           39.7           13.9          66.71
